<?xml version="1.0" encoding="utf-8"?>
<!DOCTYPE svg PUBLIC "-//W3C//DTD SVG 1.1//EN" "http://www.w3.org/Graphics/SVG/1.1/DTD/svg11.dtd">
<svg version="1.1" id="Webflow-vector-logo-small" xmlns="http://www.w3.org/2000/svg" xmlns:xlink="http://www.w3.org/1999/xlink" x="0px" y="0px"
	 viewBox="0 0 55 14" enable-background="new 0 0 55 14" xml:space="preserve">
<path opacity="1.0" fill="#FFFFFF" d="M17.7,5.4c0-1-1-2-2.6-2c-1.9,0-3.9,1.4-4.2,4.1c-0.3,2.8,1.4,4,3.1,4c1.7,0,2.6-0.7,3.5-1.6
	c-0.8-1-1.8-0.5-2-0.4c-0.2,0.1-0.5,0.3-1.1,0.3c-0.7,0-1.3-0.3-1.3-1.5C17.4,7.7,17.7,6.4,17.7,5.4z M15.6,5.6
	c0,0.3-0.2,0.8-2.3,1.1c0.5-1.6,1.3-1.7,1.7-1.7C15.4,4.9,15.6,5.2,15.6,5.6z M8.4,5.8c0,0-0.9,2.9-1,3.1c0-0.2-0.7-5.4-0.7-5.4
	c-1.6,0-2.4,1.1-2.8,2.3c0,0-1.1,2.9-1.2,3.1c0-0.2-0.2-3.1-0.2-3.1C2.4,4.4,1.1,3.5,0,3.5l1.3,7.8c1.6,0,2.5-1.1,3-2.3
	c0,0,1-2.5,1-2.7c0,0.1,0.7,4.9,0.7,4.9c1.6,0,2.5-1,3-2.2l2.3-5.7C9.7,3.5,8.8,4.6,8.4,5.8z M23.7,3.4c-1,0-1.8,0.5-2.4,1.4l0,0
	L21.9,0c-1.3,0-2.4,1.2-2.6,2.9l-1,8.4c0.8,0,1.6-0.2,2-0.8c0.4,0.5,1,0.9,1.9,0.9c2.3,0,3.8-2.6,3.8-5.1
	C25.9,4.1,24.8,3.4,23.7,3.4z M23.5,7.4c-0.2,1.4-1,2.3-1.7,2.3c-0.7,0-1.1-0.3-1.1-0.3c0.1-1.2,0.2-1.9,0.5-2.6
	c0.3-0.6,0.9-1.7,1.6-1.7C23.5,5.1,23.8,6,23.5,7.4z M31.6,3.5H30l0-0.1c0.1-1,0.4-1.6,1.2-1.7C31.7,1.7,32,1.4,32,1.1
	c0-0.2,0.2-1.1,0.2-1.1C29,0,28,1.4,27.8,3.5l0,0l0,0c-0.5,0-1.1,0.6-1.2,1.3l0,0.3h1.1l-0.9,7.3l-0.3,1.3c0,0,0.1,0,0.1,0
	c1.5-0.1,2.4-1.2,2.6-2.9l0.7-5.7h0.5c0.5,0,1.1-0.5,1.2-1.3L31.6,3.5z M39.8,3.4c-1.8,0-3.5,1.3-4.1,3.5c-0.5,2.1,0.3,4.6,3,4.6
	c2.7,0,4.2-2.6,4.2-4.8C42.9,4.5,41.5,3.4,39.8,3.4z M40.6,7.3c-0.1,1-0.5,2.4-1.7,2.4c-1.2,0-1-1.7-0.9-2.5
	c0.1-0.9,0.6-2.1,1.6-2.1C40.6,5.1,40.7,6.2,40.6,7.3z M51.9,5.8c0,0-0.9,2.9-1,3.1c0-0.2-0.7-5.4-0.7-5.4c-1.6,0-2.4,1.1-2.8,2.3
	c0,0-1.1,2.9-1.2,3.1c0-0.2-0.2-3.1-0.2-3.1c-0.1-1.4-1.4-2.3-2.5-2.3l1.3,7.8c1.6,0,2.5-1.1,3-2.3c0,0,1-2.5,1-2.7
	c0,0.1,0.7,4.9,0.7,4.9c1.6,0,2.5-1,3-2.2l2.3-5.7C53.2,3.5,52.4,4.6,51.9,5.8z M33.1,0l-1.3,10.7l0,0l-0.3,1.3c0,0,0.1,0,0.1,0l0,0
	c1.4,0,2.4-1.3,2.6-2.9L35,3.1C35.2,1.2,34.1,0,33.1,0z"/>
</svg>
